<svg width="44" height="44" viewBox="0 0 44 44" fill="none" xmlns="http://www.w3.org/2000/svg">
<circle cx="22" cy="22" r="22" fill="#676767"/>
<path d="M22.4997 21.5002C20.8955 21.5002 19.5222 20.929 18.3799 19.7866C17.2375 18.6443 16.6663 17.271 16.6663 15.6668C16.6663 14.0627 17.2375 12.6894 18.3799 11.547C19.5222 10.4047 20.8955 9.8335 22.4997 9.8335C24.1038 9.8335 25.4771 10.4047 26.6195 11.547C27.7618 12.6894 28.333 14.0627 28.333 15.6668C28.333 17.271 27.7618 18.6443 26.6195 19.7866C25.4771 20.929 24.1038 21.5002 22.4997 21.5002ZM10.833 33.1668V29.0835C10.833 28.2571 11.0459 27.4978 11.4718 26.8056C11.8976 26.1134 12.4625 25.5845 13.1663 25.2189C14.6733 24.4654 16.2045 23.9006 17.7601 23.5243C19.3156 23.1481 20.8955 22.9595 22.4997 22.9585C24.1038 22.9575 25.6837 23.1461 27.2393 23.5243C28.7948 23.9025 30.3261 24.4674 31.833 25.2189C32.5379 25.5835 33.1032 26.1124 33.529 26.8056C33.9549 27.4988 34.1673 28.2581 34.1663 29.0835V33.1668H10.833ZM13.7497 30.2502H31.2497V29.0835C31.2497 28.8161 31.1831 28.5731 31.0499 28.3543C30.9167 28.1356 30.7402 27.9654 30.5205 27.8439C29.208 27.1877 27.8834 26.6957 26.5465 26.3681C25.2097 26.0404 23.8608 25.8761 22.4997 25.8752C21.1386 25.8742 19.7896 26.0385 18.4528 26.3681C17.116 26.6977 15.7913 27.1896 14.4788 27.8439C14.2601 27.9654 14.0836 28.1356 13.9495 28.3543C13.8153 28.5731 13.7487 28.8161 13.7497 29.0835V30.2502ZM22.4997 18.5835C23.3018 18.5835 23.9886 18.2981 24.5603 17.7275C25.132 17.1568 25.4173 16.4699 25.4163 15.6668C25.4154 14.8638 25.13 14.1774 24.5603 13.6077C23.9906 13.0379 23.3037 12.7521 22.4997 12.7502C21.6956 12.7482 21.0093 13.0341 20.4405 13.6077C19.8718 14.1813 19.5859 14.8677 19.583 15.6668C19.5801 16.466 19.8659 17.1529 20.4405 17.7275C21.0151 18.302 21.7015 18.5874 22.4997 18.5835Z" fill="white"/>
</svg>
